Storyline:

Ding Hui is a member of Purple Butterfly, a powerful resistance group in Japanese occupied Shanghai. An unexpected encounter reunites her with Itami, an ex-lover... and officer with a secret police unit tasked with dismantling Purple Butterfly.



CD1:

Format                                   : AVI
Format/Info                              : Audio Video Interleave
File size                                : 700 MiB
Duration                                 : 57mn 29s
Overall bit rate                         : 1 702 Kbps
Writing application                      : VirtualDubMod 1.5.10.1 (build 2439/release)
Writing library                          : VirtualDubMod build 2439/release

Video
ID                                       : 0
Format                                   : MPEG-4 Visual
Format profile                           : Advanced Simple@L5
Format settings, BVOP                    : 2
Format settings, QPel                    : No
Format settings, GMC                     : No warppoints
Format settings, Matrix                  : Default (MPEG)
Muxing mode                              : Packed bitstream
Codec ID                                 : XVID
Codec ID/Hint                            : XviD
Duration                                 : 57mn 29s
Bit rate                                 : 1 244 Kbps
Width                                    : 592 pixels
Height                                   : 320 pixels
Display aspect ratio                     : 1.850
Frame rate                               : 25.000 fps
Color space                              : YUV
Chroma subsampling                       : 4:2:0
Bit depth                                : 8 bits
Scan type                                : Progressive
Compression mode                         : Lossy
Bits/(Pixel*Frame)                       : 0.263
Stream size                              : 511 MiB (73%)
Writing library                          : XviD 1.0.1 (UTC 2004-06-05)

Audio
ID                                       : 1
Format                                   : AC-3
Format/Info                              : Audio Coding 3
Mode extension                           : CM (complete main)
Codec ID                                 : 2000
Duration                                 : 57mn 29s
Bit rate mode                            : Constant
Bit rate                                 : 448 Kbps
Channel(s)                               : 6 channels
Channel positions                        : Front: L C R, Side: L R, LFE
Sampling rate                            : 48.0 KHz
Bit depth                                : 16 bits
Compression mode                         : Lossy
Stream size                              : 184 MiB (26%)
Alignment                                : Split accross interleaves
Interleave, duration                     : 40 ms (1.00 video frame)
Interleave, preload duration             : 500 ms


CD2:

Format                                   : AVI
Format/Info                              : Audio Video Interleave
File size                                : 696 MiB
Duration                                 : 1h 5mn
Overall bit rate                         : 1 484 Kbps
Writing application                      : VirtualDubMod 1.5.10.1 (build 2439/release)
Writing library                          : VirtualDubMod build 2439/release

Video
ID                                       : 0
Format                                   : MPEG-4 Visual
Format profile                           : Advanced Simple@L5
Format settings, BVOP                    : 2
Format settings, QPel                    : No
Format settings, GMC                     : No warppoints
Format settings, Matrix                  : Default (MPEG)
Muxing mode                              : Packed bitstream
Codec ID                                 : XVID
Codec ID/Hint                            : XviD
Duration                                 : 1h 5mn
Bit rate                                 : 1 028 Kbps
Width                                    : 592 pixels
Height                                   : 320 pixels
Display aspect ratio                     : 1.850
Frame rate                               : 25.000 fps
Color space                              : YUV
Chroma subsampling                       : 4:2:0
Bit depth                                : 8 bits
Scan type                                : Progressive
Compression mode                         : Lossy
Bits/(Pixel*Frame)                       : 0.217
Stream size                              : 482 MiB (69%)
Writing library                          : XviD 1.0.1 (UTC 2004-06-05)

Audio
ID                                       : 1
Format                                   : AC-3
Format/Info                              : Audio Coding 3
Mode extension                           : CM (complete main)
Codec ID                                 : 2000
Duration                                 : 1h 5mn
Bit rate mode                            : Constant
Bit rate                                 : 448 Kbps
Channel(s)                               : 6 channels
Channel positions                        : Front: L C R, Side: L R, LFE
Sampling rate                            : 48.0 KHz
Bit depth                                : 16 bits
Compression mode                         : Lossy
Delay relative to video                  : 8ms
Stream size                              : 209 MiB (30%)
Alignment                                : Split accross interleaves
Interleave, duration                     : 40 ms (1.00 video frame)
Interleave, preload duration             : 500 ms
